<svg id="Layer_1" data-name="Layer 1" xmlns="http://www.w3.org/2000/svg" viewBox="0 0 487.2 486.9"><defs><style>.cls-1{fill:#e1e1e0;}.cls-2,.cls-5{fill:#3b8aca;}.cls-3{fill:#80b4e2;}.cls-4,.cls-6{fill:#304b5e;}.cls-5,.cls-7{stroke:#304b5e;}.cls-5,.cls-6,.cls-7{stroke-miterlimit:10;stroke-width:0.25px;}.cls-6{stroke:#e1e1e0;}.cls-7,.cls-8{fill:#136db5;}.cls-9{fill:#fff;}</style></defs><title>UGAMELOGO1</title><rect class="cls-1" x="0.3" width="486.9" height="486.9"/><path class="cls-2" d="M78.27,218c-16.47,0-29.91-9.65-29.91-26.33V147.35h16.8v43.13c0,8.23,5.31,13,13.33,13s13.32-4.77,13.32-13V147.35h16.47v44.32C108.28,208.25,94.85,218,78.27,218Z" transform="translate(6.04 5.03)"/><path class="cls-2" d="M117.38,192.64V180.51h28.39v12.13Z" transform="translate(6.04 5.03)"/><path class="cls-2" d="M191.17,218.11c-19.07,0-38.36-12.46-38.36-36.19s19.72-36.3,38-36.3c9.54,0,17.77,2.6,22.43,5.74l-3.14,13.87a32.88,32.88,0,0,0-17.55-4.88c-12.57,0-23.08,8.35-23.08,22.11,0,12.89,10,21.45,22.43,21.45,4,0,7-.65,9.42-2.06V190.91h-12V178h27.41V211C210.89,215.61,202.44,218.11,191.17,218.11Z" transform="translate(6.04 5.03)"/><path class="cls-2" d="M271.89,216.48l-5.74-15.6h-22l-5.74,15.6H222.59l27.2-69.67h11.59l27.2,69.67ZM257.26,175a66.08,66.08,0,0,1-2.06-6.39H255a56.49,56.49,0,0,1-2,6.39l-4.66,12.79h13.54Z" transform="translate(6.04 5.03)"/><path class="cls-2" d="M359.44,216.48,357.16,191c-.32-3.79-.65-8.35-.65-12.79h-.22a140.75,140.75,0,0,1-5.85,13l-13,25.47h-6.72L317.5,191.23a132.19,132.19,0,0,1-5.85-12.89h-.21c0,4.44-.22,9-.54,12.68l-2.17,25.46h-15.6l5.95-69.13H313l15.06,29c2.17,4.23,5.1,10.19,6.94,14.74h.11c1.73-4.55,4.44-10.19,6.72-14.74l15-29h13l6.07,69.13Z" transform="translate(6.04 5.03)"/><path class="cls-2" d="M384.9,216.48V147.35h39.66v13.76H401.37v13.66h19.07v14.08H401.37v13.87h26.44v13.76Z" transform="translate(6.04 5.03)"/><path class="cls-3" d="M83,257.4v71.29S60,331.58,60,316.37V270.9C59.94,264.23,64.91,257.4,83,257.4Z" transform="translate(6.04 5.03)"/><circle class="cls-4" cx="78.37" cy="280.24" r="5.42"/><circle class="cls-1" cx="78.37" cy="295.03" r="2.97"/><circle class="cls-1" cx="73.35" cy="300.08" r="2.97"/><circle class="cls-1" cx="78.37" cy="305.26" r="2.97"/><circle class="cls-1" cx="83.79" cy="300.07" r="2.97"/><rect class="cls-4" x="83.27" y="269.04" width="3.78" height="0.78"/><path class="cls-4" d="M87.85,257.4l-1,71.22s23,3.23,23.23-12l.67-45.43C110.8,264.56,105.93,257.67,87.85,257.4Z" transform="translate(6.04 5.03)"/><circle class="cls-3" cx="104.35" cy="300.42" r="5.41"/><circle class="cls-1" cx="104.72" cy="275.94" r="2.97"/><circle class="cls-1" cx="99.62" cy="280.9" r="2.97"/><circle class="cls-1" cx="104.56" cy="286.16" r="2.97"/><circle class="cls-1" cx="110.05" cy="281.06" r="2.97"/><rect class="cls-3" x="89.86" y="264.24" width="3.78" height="0.78" transform="translate(9.95 3.71) rotate(0.84)"/><rect class="cls-3" x="89.86" y="264.24" width="3.78" height="0.78" transform="translate(363.74 181.82) rotate(90.84)"/><path class="cls-4" d="M388.48,257l-1.37,40.91-11.76-10.33.38-11.47c.07-2.08,3.07-16,4.91-17S388.48,257,388.48,257Z" transform="translate(6.04 5.03)"/><path class="cls-4" d="M396.41,257.26l-1.36,40.62,12.41-9.23.38-11.47c.07-2.08-2-16.17-3.75-17.24S396.41,257.26,396.41,257.26Z" transform="translate(6.04 5.03)"/><path class="cls-5" d="M375.39,286.39s-8.22,8.51-8.85,15.41,4.52,11.42,6.83,14.7,3.08,8.61,7.75,9.75c0,0-6-14.7-5.88-18.47S375.39,286.39,375.39,286.39Z" transform="translate(6.04 5.03)"/><path class="cls-5" d="M407.76,279.6s6.13,5.27,7.74,12.7-2.39,11.51-6.48,18.92-6.32,15.86-10.68,16.18c0,0,8.33-15.24,8.44-18.45Z" transform="translate(6.04 5.03)"/><polygon class="cls-5" points="394.38 266.3 402.31 266.57 401.14 301.32 397.02 305.17 393.21 301.05 394.38 266.3"/><rect class="cls-6" x="389.31" y="267.13" width="5.06" height="14.18" rx="0.63" transform="translate(15.44 -7.92) rotate(1.92)"/><path class="cls-7" d="M375.35,287.57l-.68,20.25c-.07,2.3,6.18,20.59,8.26,20.66L397,329c1.35,0,9.71-17.53,9.79-20l.69-20.53-16.42,10.43Z" transform="translate(6.04 5.03)"/><circle class="cls-4" cx="396.83" cy="311.48" r="4.16"/><circle class="cls-1" cx="396.83" cy="311.48" r="2.87"/><circle class="cls-4" cx="396.52" cy="320.84" r="2.87"/><circle class="cls-1" cx="396.52" cy="320.84" r="1.98"/><path class="cls-8" d="M140.82,259.92v-.83c0-.28,3.66-2.41,8.38-2.11s6.13,1.67,6.14,1.94,0,1.05,0,1.05l58.28.35v-.86c0-.31,1.36-2,6.63-2s7.87,1.77,7.89,2.24,0,.84,0,.84a39.53,39.53,0,0,1,5.93,10.35c2.5,6.37,6.15,16.49,7.08,25.77s2,19.05.72,23.77-4.22,9.21-9.54,9S219,325.08,218.49,324s-.54-5.2-2.29-10.68-3.57-7.86-4.68-8.09-1,0-1.36-.25a1.42,1.42,0,0,1-.77-1.3l-50.39-.4a2.34,2.34,0,0,1-.65,1.14c-.49.38-1.11.14-1.52.38s-2.58,1.6-4.19,6.8-2.77,11.26-3.06,11.9-5.8,5.22-13.82,5.23-10.66-5.6-9.92-16.19a188.06,188.06,0,0,1,3.89-27.15,99.55,99.55,0,0,1,6.8-18.62C139.17,261.39,140.49,260.42,140.82,259.92Z" transform="translate(6.04 5.03)"/><circle class="cls-3" cx="153.24" cy="282.98" r="13.08"/><circle class="cls-3" cx="227.37" cy="283.49" r="13.08"/><circle class="cls-4" cx="170.23" cy="300.69" r="10.52"/><circle class="cls-1" cx="170.23" cy="300.69" r="5.6"/><circle class="cls-4" cx="210.55" cy="300.97" r="10.52"/><circle class="cls-1" cx="210.55" cy="300.97" r="5.6"/><circle class="cls-1" cx="190.28" cy="300.19" r="2.78"/><circle class="cls-1" cx="227.25" cy="275.52" r="3.08"/><circle class="cls-1" cx="219.56" cy="284.23" r="3.08"/><circle class="cls-1" cx="192.4" cy="291.58" r="0.73"/><circle class="cls-1" cx="190.34" cy="291.57" r="0.73"/><circle class="cls-1" cx="188.28" cy="291.55" r="0.73"/><circle class="cls-1" cx="235.55" cy="283.16" r="3.08"/><circle class="cls-1" cx="228.03" cy="291.6" r="3.08"/><path class="cls-1" d="M147.21,276.41c.71,0,2.81-2.2,2.94-2.46s.38-4,.38-4.26-1.39-1.43-3.26-1.45a3.88,3.88,0,0,0-3.15,1.42,43.13,43.13,0,0,0,.26,4.42C144.55,274.43,146.51,276.41,147.21,276.41Z" transform="translate(6.04 5.03)"/><path class="cls-1" d="M148.94,277.89c0,.7,2.19,2.81,2.45,2.94s4,.38,4.27.38,1.43-1.4,1.44-3.26a3.8,3.8,0,0,0-1.42-3.15,43.11,43.11,0,0,0-4.41.26C150.91,275.23,148.94,277.19,148.94,277.89Z" transform="translate(6.04 5.03)"/><path class="cls-1" d="M147.32,279.63c-.7,0-2.8,2.2-2.94,2.45s-.37,4-.38,4.27,1.4,1.43,3.26,1.45a3.91,3.91,0,0,0,3.16-1.42,43.24,43.24,0,0,0-.27-4.42C150,281.61,148,279.63,147.32,279.63Z" transform="translate(6.04 5.03)"/><path class="cls-1" d="M145.65,278.11c0-.7-2.2-2.8-2.46-2.93s-4-.38-4.27-.39-1.43,1.4-1.44,3.27a3.88,3.88,0,0,0,1.42,3.15,40.87,40.87,0,0,0,4.42-.27C143.67,280.78,145.64,278.81,145.65,278.11Z" transform="translate(6.04 5.03)"/><rect class="cls-4" x="158.48" y="263.03" width="4.56" height="6.84" rx="0.59" transform="translate(7.9 3.92) rotate(0.4)"/><rect class="cls-4" x="205.95" y="263.31" width="4.56" height="6.84" rx="0.59" transform="translate(7.9 3.59) rotate(0.4)"/><rect class="cls-2" x="164.36" y="261.68" width="40.32" height="20.4" transform="translate(7.94 3.76) rotate(0.4)"/><path class="cls-8" d="M264,267.83c.66-.55,1.93-1,2.33-1.45s-.11-2.95,3.47-4.79a39.15,39.15,0,0,1,11.56-3.95c3.63-.51,4.52,0,5.85.72s2.13,2,2.41,2l27.65.14c.24,0,.57-.61,2.11-1.59a7.78,7.78,0,0,1,4.36-1c1.65-.05,4,.35,8.05,1.74s6,2.57,7.09,3.8a7.83,7.83,0,0,1,1.42,3.09c.22.45,1.8,1,2.23,1.48s5.77,13.74,7,17.41,3.8,11.94,4.57,14.9a52.3,52.3,0,0,1,1.94,13.88c0,6.09-1.27,8.54-2.68,11.06s-4.16,3.28-6.74,3.61-5-1.29-7.75-4.17-8.22-8.88-10.08-10.6a13.69,13.69,0,0,0-7-3.16l-35.76-.18a13.11,13.11,0,0,0-9.05,3.66c-2,2.09-9.77,10.31-11.56,11.9s-2,1.94-6,2.11-7-3.29-8.65-8c-.73-2.06-.91-4.75-.52-9.38s2.84-14,4-17.69S263.39,268.38,264,267.83Z" transform="translate(6.04 5.03)"/><circle class="cls-4" cx="296.44" cy="301" r="9.42"/><circle class="cls-1" cx="296.44" cy="301" r="8.45"/><circle class="cls-4" cx="283.27" cy="284.5" r="6.4"/><path class="cls-9" d="M295.9,293.49h-3v-2.94a1.33,1.33,0,0,0-1.4-1.41h-2.25a1.42,1.42,0,0,0-1.36,1.34v3H285a1.32,1.32,0,0,0-1.41,1.39v2.26a1.42,1.42,0,0,0,1.34,1.36h3v2.93a1.31,1.31,0,0,0,1.39,1.41l2.26,0a1.43,1.43,0,0,0,1.36-1.35v-3h2.93a1.32,1.32,0,0,0,1.41-1.4l0-2.25A1.43,1.43,0,0,0,295.9,293.49Z" transform="translate(6.04 5.03)"/><circle class="cls-1" cx="283.27" cy="284.5" r="5.74"/><circle class="cls-3" cx="302.26" cy="284.44" r="2.31"/><circle class="cls-3" cx="317.7" cy="284.52" r="2.31"/><circle class="cls-1" cx="330.3" cy="284.58" r="3.56"/><circle class="cls-9" cx="309.48" cy="272.58" r="4.93"/><circle class="cls-1" cx="337.38" cy="291.78" r="3.56"/><circle class="cls-1" cx="344.53" cy="284.66" r="3.56"/><circle class="cls-1" cx="337.45" cy="277.46" r="3.56"/><circle class="cls-4" cx="323.56" cy="300.71" r="6.66"/><circle class="cls-1" cx="323.56" cy="300.71" r="5.95"/><rect class="cls-4" y="237.43" width="486.31" height="8.03"/><rect class="cls-4" x="0.59" y="120.61" width="486.31" height="8.03"/><rect class="cls-4" x="0.03" y="355.19" width="486.28" height="8.03"/></svg>