<svg xmlns="http://www.w3.org/2000/svg" viewBox="0 0 1414.2 426.47"><defs><style>.cls-1,.cls-11,.cls-2{fill:#80b4e2;}.cls-1{opacity:0.5;}.cls-3,.cls-9{fill:#304b5e;}.cls-4{fill:#e1e1e0;}.cls-10,.cls-5{fill:#136db5;}.cls-6,.cls-8{fill:#3b8aca;}.cls-7{fill:#fff;}.cls-10,.cls-8{stroke:#304b5e;}.cls-10,.cls-8,.cls-9{stroke-miterlimit:10;stroke-width:0.25px;}.cls-9{stroke:#e1e1e0;}.cls-11{opacity:0.9;}.cls-12{fill:#126db5;}</style></defs><title>UGAME BANNER</title><g id="Light_Blue" data-name="Light Blue"><rect class="cls-1" x="101.64" y="46.96" width="1224.59" height="313.11"/></g><g id="Layer_2" data-name="Layer 2"><path class="cls-2" d="M1059,74.77l36.85,118.63s-36.89,16.74-44.75-8.56l-23.51-75.67C1024.12,98.06,1028.86,84.13,1059,74.77Z" transform="translate(114.33 53.37)"/><circle class="cls-3" cx="1164.74" cy="163.29" r="9.44"/><circle class="cls-4" cx="1172.39" cy="187.91" r="5.18"/><circle class="cls-4" cx="1166.63" cy="198.9" r="5.18"/><circle class="cls-4" cx="1177.68" cy="204.94" r="5.18"/><circle class="cls-4" cx="1184" cy="193.5" r="5.18"/><rect class="cls-3" x="1052.82" y="87.74" width="6.59" height="1.36" transform="translate(135.64 370.66) rotate(-17.26)"/><path class="cls-2" d="M846.72-28,759.25,98.3s-44.42-23.18-25.76-50.12l55.79-80.56C797.48-44.21,814.65-50.2,846.72-28Z" transform="translate(114.33 53.37)"/><circle class="cls-3" cx="920.28" cy="43.81" r="11.67"/><circle class="cls-4" cx="902.13" cy="70.03" r="6.4"/><circle class="cls-4" cx="887.03" cy="72.79" r="6.4"/><circle class="cls-4" cx="889.57" cy="88.15" r="6.4"/><circle class="cls-4" cx="905.53" cy="85.6" r="6.4"/><rect class="cls-3" x="827.17" y="-21.22" width="8.15" height="1.68" transform="translate(250.62 -423.54) rotate(34.71)"/><path class="cls-2" d="M18.21,242l31.18,61.33s-18.58,12.58-25.23-.5L4.26,263.66C1.34,257.92,2.63,249.87,18.21,242Z" transform="translate(114.33 53.37)"/><circle class="cls-3" cx="131.13" cy="315.32" r="5.23"/><circle class="cls-4" cx="137.6" cy="328.05" r="2.87"/><circle class="cls-4" cx="135.49" cy="334.58" r="2.87"/><circle class="cls-4" cx="142.08" cy="336.85" r="2.87"/><circle class="cls-4" cx="144.47" cy="330.02" r="2.87"/><rect class="cls-3" x="16.09" y="249.3" width="3.65" height="0.75" transform="translate(3.12 88.6) rotate(-26.95)"/><path class="cls-3" d="M192.09-29.08,230,157.59s61.95-4.7,53.86-44.52L259.68-6C256.13-23.48,239.48-38.71,192.09-29.08Z" transform="translate(114.33 53.37)"/><circle class="cls-2" cx="355.45" cy="117.58" r="14.47"/><circle class="cls-4" cx="342.41" cy="53.4" r="7.94"/><circle class="cls-4" cx="331.93" cy="69.28" r="7.94"/><circle class="cls-4" cx="347.85" cy="80.2" r="7.94"/><circle class="cls-4" cx="359.27" cy="63.73" r="7.94"/><rect class="cls-2" x="201.34" y="-13.46" width="10.11" height="2.08" transform="translate(120.93 94.21) rotate(-11.48)"/><path class="cls-3" d="M1082.83,223.7l-65.7,97.8s29,25.23,43,4.37l41.9-62.38C1108.19,254.33,1107.66,240.39,1082.83,223.7Z" transform="translate(114.33 53.37)"/><circle class="cls-2" cx="1177.39" cy="339.19" r="8.95"/><circle class="cls-4" cx="1199.98" cy="305.57" r="4.91"/><circle class="cls-4" cx="1188.44" cy="307.85" r="4.91"/><circle class="cls-4" cx="1190.55" cy="319.6" r="4.91"/><circle class="cls-4" cx="1202.76" cy="317.48" r="4.91"/><rect class="cls-2" x="1078.58" y="236.6" width="6.25" height="1.29" transform="translate(430.42 -509.52) rotate(33.89)"/><rect class="cls-2" x="1078.58" y="236.6" width="6.25" height="1.29" transform="translate(1996.17 -475) rotate(123.89)"/><path class="cls-3" d="M760.53,212.34l-26.73,72s22.2,11.57,27.9-3.78l17-45.89C781.25,227.88,778.8,219.13,760.53,212.34Z" transform="translate(114.33 53.37)"/><circle class="cls-2" cx="871.79" cy="308.06" r="5.83"/><circle class="cls-4" cx="880.98" cy="283.33" r="3.2"/><circle class="cls-4" cx="874.02" cy="286.54" r="3.2"/><circle class="cls-4" cx="877.15" cy="293.66" r="3.2"/><circle class="cls-4" cx="884.56" cy="290.45" r="3.2"/><rect class="cls-2" x="759.85" y="220.67" width="4.07" height="0.84" transform="translate(239.04 -198.16) rotate(20.38)"/><rect class="cls-2" x="759.85" y="220.67" width="4.07" height="0.84" transform="translate(1348.82 -362.71) rotate(110.38)"/><path class="cls-2" d="M425.63,237.28l28.53,132s-41.57,14.6-47.66-13.57l-18.2-84.23C385.63,259.15,392.11,244.52,425.63,237.28Z" transform="translate(114.33 53.37)"/><circle class="cls-3" cx="527.3" cy="327.9" r="10.26"/><circle class="cls-4" cx="533.22" cy="355.31" r="5.63"/><circle class="cls-4" cx="525.93" cy="366.66" r="5.63"/><circle class="cls-4" cx="537.32" cy="374.26" r="5.63"/><circle class="cls-4" cx="545.27" cy="362.48" r="5.63"/><rect class="cls-3" x="417.63" y="251.05" width="7.17" height="1.48" transform="translate(70.66 148) rotate(-12.19)"/><path class="cls-3" d="M434.6,235.34l26.54,132.35s43.91-3.22,38.25-31.46l-16.94-84.41C480,239.42,468.2,228.6,434.6,235.34Z" transform="translate(114.33 53.37)"/><circle class="cls-2" cx="583.51" cy="354.9" r="10.25"/><circle class="cls-4" cx="574.38" cy="309.4" r="5.62"/><circle class="cls-4" cx="566.92" cy="320.64" r="5.62"/><circle class="cls-4" cx="578.19" cy="328.4" r="5.62"/><circle class="cls-4" cx="586.31" cy="316.75" r="5.62"/><rect class="cls-2" x="441.12" y="246.43" width="7.16" height="1.47" transform="translate(74.4 145.66) rotate(-11.34)"/><rect class="cls-2" x="441.12" y="246.43" width="7.16" height="1.47" transform="translate(713.92 -184.09) rotate(78.66)"/><path class="cls-3" d="M466.76-53.37,409.71,75.45s39.38,23.69,51.55-3.79l36.39-82.17C503-22.58,499.47-38.89,466.76-53.37Z" transform="translate(114.33 53.37)"/><circle class="cls-2" cx="570.72" cy="77.25" r="10.7"/><circle class="cls-4" cx="590.33" cy="32.97" r="5.87"/><circle class="cls-4" cx="577.22" cy="38.05" r="5.87"/><circle class="cls-4" cx="582.15" cy="51.46" r="5.87"/><circle class="cls-4" cx="596.08" cy="46.41" r="5.87"/><rect class="cls-2" x="464.52" y="-37.97" width="7.48" height="1.54" transform="translate(139.37 -139.43) rotate(23.89)"/><rect class="cls-2" x="464.52" y="-37.97" width="7.48" height="1.54" transform="translate(738.18 -427.04) rotate(113.89)"/><path class="cls-5" d="M1159.88,213.32l.36-1.28c.11-.42,6.61-2.17,13.72.25s8.72,5.11,8.62,5.52-.45,1.61-.45,1.61l89.27,24.75.37-1.32c.13-.47,2.94-2.56,11-.32s11.33,6,11.16,6.71-.35,1.28-.35,1.28a62.73,62.73,0,0,1,4.79,18.34c1.19,10.82,2.58,27.86.16,42.49s-4.89,30-8.77,36.77-10.3,12.37-18.37,9.8-18.67-12.15-19-14,1.34-8.2.92-17.34-2.21-13.54-3.81-14.35-1.55-.46-2-.95a2.28,2.28,0,0,1-.64-2.31l-77.14-21.56a3.7,3.7,0,0,1-1.48,1.48c-.9.39-1.76-.24-2.49-.05s-4.62,1.4-9.25,8.71-8.94,16.12-9.63,17-11.07,5.6-23.38,2.29-14-13-8.5-29a298.29,298.29,0,0,1,17.24-40A158.71,158.71,0,0,1,1150.46,222C1156.75,214.88,1159.18,213.94,1159.88,213.32Z" transform="translate(114.33 53.37)"/><circle class="cls-2" cx="1276.52" cy="297" r="20.8"/><circle class="cls-2" cx="1390.04" cy="328.58" r="20.8"/><circle class="cls-3" cx="1295.23" cy="331.23" r="16.72"/><circle class="cls-4" cx="1295.23" cy="331.23" r="8.9"/><circle class="cls-3" cx="1356.98" cy="348.41" r="16.72"/><circle class="cls-4" cx="1356.98" cy="348.41" r="8.9"/><circle class="cls-4" cx="1326.2" cy="338.79" r="4.43"/><circle class="cls-4" cx="1393.18" cy="316.3" r="4.9"/><circle class="cls-4" cx="1377.75" cy="326.47" r="4.9"/><circle class="cls-4" cx="1333.02" cy="326.46" r="1.16"/><circle class="cls-4" cx="1329.87" cy="325.59" r="1.16"/><circle class="cls-4" cx="1326.72" cy="324.71" r="1.16"/><circle class="cls-4" cx="1402.73" cy="331.47" r="4.9"/><circle class="cls-4" cx="1387.69" cy="341.29" r="4.9"/><path class="cls-4" d="M1162.85,241.28c1.07.3,5.22-2.21,5.52-2.55s2.23-5.93,2.36-6.39-1.54-2.77-4.4-3.57-5.34.56-5.43.87a69.58,69.58,0,0,0-1.43,6.89C1159.58,237.14,1161.77,241,1162.85,241.28Z" transform="translate(114.33 53.37)"/><path class="cls-4" d="M1164.87,244.27c-.29,1.07,2.21,5.21,2.55,5.52s5.94,2.23,6.39,2.36,2.78-1.55,3.57-4.4-.56-5.34-.87-5.43a66.82,66.82,0,0,0-6.89-1.43C1169,241,1165.17,243.19,1164.87,244.27Z" transform="translate(114.33 53.37)"/><path class="cls-4" d="M1161.68,246.26c-1.08-.3-5.22,2.21-5.53,2.55s-2.23,5.93-2.36,6.39,1.55,2.77,4.41,3.57,5.33-.56,5.42-.87a66.82,66.82,0,0,0,1.43-6.89C1164.94,250.4,1162.75,246.56,1161.68,246.26Z" transform="translate(114.33 53.37)"/><path class="cls-4" d="M1159.73,243.24c.3-1.08-2.2-5.22-2.54-5.53s-5.94-2.23-6.39-2.35-2.78,1.54-3.57,4.4.55,5.34.87,5.42a64.6,64.6,0,0,0,6.88,1.43C1155.59,246.51,1159.44,244.31,1159.73,243.24Z" transform="translate(114.33 53.37)"/><rect class="cls-3" x="1184.15" y="226.19" width="7.26" height="10.87" rx="0.59" transform="translate(219.88 -256.53) rotate(15.55)"/><rect class="cls-3" x="1256.87" y="246.33" width="7.26" height="10.87" rx="0.59" transform="matrix(0.96, 0.27, -0.27, 0.96, 227.94, -275.29)"/><rect class="cls-6" x="1189.92" y="233.62" width="64.09" height="32.42" transform="translate(226.01 -265.03) rotate(15.55)"/><path class="cls-5" d="M985.54,4.57l.12-.55a8.69,8.69,0,0,1,5.79-.2c3.06.87,3.8,2,3.77,2.13s-.16.7-.16.7l38.22,8.42.12-.56c0-.2,1.18-1.15,4.64-.39s4.91,2.27,4.86,2.58a5.07,5.07,0,0,1-.12.55,26.55,26.55,0,0,1,2.43,7.63c.75,4.54,1.72,11.69,1,17.92s-1.38,12.78-2.87,15.71-4.07,5.45-7.53,4.54-8.15-4.7-8.31-5.49.38-3.48,0-7.33-1.24-5.66-1.94-6-.66-.16-.86-.35a1,1,0,0,1-.32-1l-33-7.35a1.6,1.6,0,0,1-.59.66c-.37.18-.74-.07-1,0s-1.92.7-3.7,3.88-3.41,7-3.68,7.39-4.55,2.61-9.81,1.49-6.22-5.18-4.24-12a125,125,0,0,1,6.37-17.28,67.13,67.13,0,0,1,7.08-11.27A17.59,17.59,0,0,1,985.54,4.57Z" transform="translate(114.33 53.37)"/><circle class="cls-2" cx="1101.53" cy="70.68" r="8.78"/><circle class="cls-2" cx="1150.12" cy="81.44" r="8.78"/><circle class="cls-3" cx="1110.19" cy="84.69" r="7.06"/><circle class="cls-4" cx="1110.19" cy="84.69" r="3.76"/><circle class="cls-3" cx="1136.62" cy="90.55" r="7.06"/><circle class="cls-4" cx="1136.62" cy="90.55" r="3.76"/><circle class="cls-4" cx="1123.42" cy="87.18" r="1.87"/><circle class="cls-4" cx="1151.17" cy="76.19" r="2.07"/><circle class="cls-4" cx="1144.89" cy="80.82" r="2.07"/><circle class="cls-4" cx="1126.02" cy="81.83" r="0.49"/><circle class="cls-4" cx="1124.68" cy="81.53" r="0.49"/><circle class="cls-4" cx="1123.33" cy="81.23" r="0.49"/><circle class="cls-4" cx="1155.54" cy="82.37" r="2.07"/><circle class="cls-4" cx="1149.42" cy="86.85" r="2.07"/><path class="cls-4" d="M987.42,16.3c.46.1,2.15-1.05,2.28-1.2s.8-2.55.85-2.75a2.7,2.7,0,0,0-1.94-1.41,2.6,2.6,0,0,0-2.27.49,27.93,27.93,0,0,0-.45,2.94C986,14.63,987,16.2,987.42,16.3Z" transform="translate(114.33 53.37)"/><path class="cls-4" d="M988.34,17.51c-.1.46,1,2.16,1.2,2.28s2.56.8,2.75.85a2.68,2.68,0,0,0,1.41-1.94,2.61,2.61,0,0,0-.49-2.27c-.13,0-2.68-.5-2.94-.45S988.45,17.05,988.34,17.51Z" transform="translate(114.33 53.37)"/><path class="cls-4" d="M987,18.43c-.46-.1-2.15,1.05-2.27,1.2a28.07,28.07,0,0,0-.85,2.74,2.6,2.6,0,0,0,1.93,1.41,2.57,2.57,0,0,0,2.27-.49,27.33,27.33,0,0,0,.45-2.93C988.51,20.1,987.5,18.53,987,18.43Z" transform="translate(114.33 53.37)"/><path class="cls-4" d="M986.15,17.2c.1-.46-1-2.15-1.2-2.28s-2.55-.8-2.74-.85A2.65,2.65,0,0,0,980.8,16a2.58,2.58,0,0,0,.49,2.27c.13,0,2.68.5,2.94.45S986.05,17.66,986.15,17.2Z" transform="translate(114.33 53.37)"/><rect class="cls-3" x="996.19" y="9.37" width="3.06" height="4.59" rx="0.59" transform="translate(140.46 -162.1) rotate(12.49)"/><rect class="cls-3" x="1027.32" y="16.23" width="3.06" height="4.59" rx="0.59" transform="translate(142.68 -168.68) rotate(12.49)"/><rect class="cls-6" x="999.01" y="11.72" width="27.07" height="13.7" transform="translate(142.3 -165.15) rotate(12.49)"/><path class="cls-5" d="M760.85,133.1l-1.18-1.19c-.38-.39,1.78-8.59,8.88-14.83s11.05-6.32,11.43-6,1.48,1.5,1.48,1.5l83-82-1.22-1.23c-.42-.43-1-4.81,6.55-12.22s13.64-8.63,14.33-8,1.18,1.19,1.18,1.19a79,79,0,0,1,23,6.26c12.57,5.48,32,14.64,46.52,26.46s29.76,24.17,34.67,32.63,7.06,19-.81,26.21-25,12.79-27.21,11.92-8.12-6.6-18.37-11.87S927,95.89,925.08,97.13s-1.47,1.4-2.28,1.58a2.87,2.87,0,0,1-2.93-.75L848,168.72a4.64,4.64,0,0,1,.69,2.54c-.14,1.23-1.37,1.77-1.61,2.69s-1.38,5.93,3.71,15.56,12,19.88,12.51,21.18-.82,15.6-12.16,27-23,7.16-37-8.87-26.79-33.91-32.95-43.95a199.81,199.81,0,0,1-16.73-36C760.59,137.51,761.09,134.26,760.85,133.1Z" transform="translate(114.33 53.37)"/><circle class="cls-2" cx="909.73" cy="202.94" r="26.19"/><circle class="cls-2" cx="1015.41" cy="98.73" r="26.19"/><circle class="cls-3" cx="958.86" cy="203.96" r="21.05"/><circle class="cls-4" cx="958.86" cy="203.96" r="11.21"/><circle class="cls-3" cx="1016.34" cy="147.28" r="21.05"/><circle class="cls-4" cx="1016.34" cy="147.28" r="11.21"/><circle class="cls-4" cx="986.53" cy="174.87" r="5.57"/><circle class="cls-4" cx="1003.96" cy="87.61" r="6.18"/><circle class="cls-4" cx="1005.39" cy="110.84" r="6.18"/><circle class="cls-4" cx="977.34" cy="159.7" r="1.46"/><circle class="cls-4" cx="974.41" cy="162.59" r="1.46"/><circle class="cls-4" cx="971.48" cy="165.48" r="1.46"/><circle class="cls-4" cx="1026.52" cy="86.68" r="6.18"/><circle class="cls-4" cx="1027.82" cy="109.26" r="6.18"/><path class="cls-4" d="M793.25,147.39c1-1,.86-7.09.68-7.64s-5.08-6.16-5.5-6.58-4,0-6.66,2.57-2.74,6.18-2.45,6.47,5.9,5.62,6.63,5.88S792.25,148.37,793.25,147.39Z" transform="translate(114.33 53.37)"/><path class="cls-4" d="M797.78,147c1,1,7.09.87,7.64.69s6.16-5.09,6.58-5.5,0-4-2.57-6.67-6.18-2.73-6.47-2.45-5.62,5.9-5.88,6.63S796.8,146,797.78,147Z" transform="translate(114.33 53.37)"/><path class="cls-4" d="M798,151.79c-1,1-.86,7.08-.68,7.64s5.08,6.15,5.5,6.57,4,.06,6.66-2.57,2.74-6.18,2.45-6.47-5.9-5.61-6.63-5.88S799,150.8,798,151.79Z" transform="translate(114.33 53.37)"/><path class="cls-4" d="M793.44,152c-1-1-7.08-.86-7.63-.69s-6.16,5.09-6.58,5.51-.06,4,2.57,6.66,6.18,2.74,6.47,2.45,5.61-5.9,5.88-6.63S794.43,153,793.44,152Z" transform="translate(114.33 53.37)"/><rect class="cls-3" x="793.77" y="107.26" width="9.14" height="13.69" rx="0.59" transform="translate(264.12 646.8) rotate(-44.6)"/><rect class="cls-3" x="861.36" y="40.44" width="9.14" height="13.69" rx="0.59" transform="translate(330.5 675.02) rotate(-44.6)"/><rect class="cls-6" x="799.29" y="67.75" width="80.73" height="40.84" transform="translate(294.23 668.34) rotate(-44.6)"/><path class="cls-5" d="M405.94,101l.37-1.36c.12-.45,7.05-2.37,14.66.17s9.34,5.41,9.24,5.84-.46,1.72-.46,1.72l95.52,25.84.38-1.42c.14-.49,3.12-2.75,11.76-.41s12.14,6.31,12,7.09-.37,1.37-.37,1.37a66.85,66.85,0,0,1,5.24,19.56c1.35,11.55,3,29.74.46,45.38s-5,32.13-9.12,39.34S534.67,257.45,526,254.75s-20-12.85-20.35-14.86,1.37-8.76.86-18.52-2.45-14.45-4.17-15.31-1.65-.48-2.13-1a2.42,2.42,0,0,1-.7-2.46L417,180.09a3.92,3.92,0,0,1-1.57,1.59c-1,.42-1.89-.25-2.66,0s-4.93,1.53-9.82,9.37-9.44,17.28-10.18,18.2-11.79,6.06-25,2.6-15.07-13.82-9.27-30.88S372,146.83,376.7,138a169,169,0,0,1,19.23-27.62C402.6,102.74,405.19,101.72,405.94,101Z" transform="translate(114.33 53.37)"/><circle class="cls-2" cx="522.94" cy="186.77" r="22.21"/><circle class="cls-2" cx="644.41" cy="219.75" r="22.21"/><circle class="cls-3" cx="543.15" cy="223.21" r="17.86"/><circle class="cls-4" cx="543.15" cy="223.21" r="9.51"/><circle class="cls-3" cx="609.23" cy="241.15" r="17.86"/><circle class="cls-4" cx="609.23" cy="241.15" r="9.51"/><circle class="cls-4" cx="576.28" cy="231.08" r="4.73"/><circle class="cls-4" cx="647.68" cy="206.61" r="5.24"/><circle class="cls-4" cx="631.26" cy="217.57" r="5.24"/><circle class="cls-4" cx="583.49" cy="217.87" r="1.24"/><circle class="cls-4" cx="580.12" cy="216.95" r="1.24"/><circle class="cls-4" cx="576.75" cy="216.04" r="1.24"/><circle class="cls-4" cx="657.98" cy="222.75" r="5.24"/><circle class="cls-4" cx="641.99" cy="233.34" r="5.24"/><path class="cls-4" d="M409.29,130.89c1.15.31,5.56-2.39,5.89-2.76s2.34-6.35,2.47-6.84-1.66-3-4.72-3.78-5.7.63-5.79,1-1.6,6.72-1.48,7.37S408.14,130.58,409.29,130.89Z" transform="translate(114.33 53.37)"/><path class="cls-4" d="M411.48,134.07c-.31,1.15,2.39,5.56,2.76,5.88s6.35,2.35,6.84,2.48,2.95-1.67,3.78-4.73-.63-5.7-1-5.79a72.69,72.69,0,0,0-7.37-1.48C415.88,130.55,411.79,132.92,411.48,134.07Z" transform="translate(114.33 53.37)"/><path class="cls-4" d="M408.07,136.22c-1.15-.31-5.55,2.39-5.88,2.76s-2.34,6.35-2.47,6.84,1.66,3,4.72,3.78,5.7-.63,5.79-1,1.6-6.72,1.48-7.37S409.23,136.53,408.07,136.22Z" transform="translate(114.33 53.37)"/><path class="cls-4" d="M406,133c.31-1.15-2.39-5.55-2.76-5.88s-6.35-2.34-6.84-2.48-2.95,1.67-3.78,4.73.63,5.7,1,5.79,6.72,1.6,7.37,1.48S405.67,134.16,406,133Z" transform="translate(114.33 53.37)"/><rect class="cls-3" x="431.98" y="114.61" width="7.75" height="11.61" rx="0.59" transform="translate(161.09 -56.6) rotate(15.19)"/><rect class="cls-3" x="509.8" y="135.63" width="7.75" height="11.61" rx="0.59" transform="translate(169.32 -76.26) rotate(15.19)"/><rect class="cls-6" x="438.27" y="122.31" width="68.46" height="34.63" transform="translate(167.41 -65.53) rotate(15.19)"/><path class="cls-5" d="M-56.33,89.35l.5-1.26c.16-.41,6.94-1.52,13.91,1.69s8.33,6.1,8.19,6.5-.63,1.6-.63,1.6l88.13,34.45.52-1.31c.18-.46,3.25-2.3,11.21.82s10.9,7.26,10.65,8-.49,1.27-.49,1.27a64.18,64.18,0,0,1,3,19.14c.09,11.12-.27,28.57-4.26,43.18s-8.09,30-12.74,36.45-11.76,11.51-19.68,8-17.72-14.28-17.81-16.22,2.21-8.19,2.74-17.52-.84-14-2.38-15S23,198.54,22.56,198a2.3,2.3,0,0,1-.41-2.41l-76.14-30A3.74,3.74,0,0,1-55.65,167c-1,.31-1.76-.43-2.52-.31s-4.85.94-10.31,7.89S-79.24,190-80,190.82s-11.83,4.54-24-.11-12.9-14.7-5.62-30.32A306,306,0,0,1-88,121.49,162.85,162.85,0,0,1-66.81,97.23C-59.68,90.62-57.11,89.92-56.33,89.35Z" transform="translate(114.33 53.37)"/><circle class="cls-2" cx="57.19" cy="173.76" r="21.24"/><circle class="cls-2" cx="169.25" cy="217.68" r="21.24"/><circle class="cls-3" cx="72.63" cy="210.49" r="17.07"/><circle class="cls-4" cx="72.63" cy="210.49" r="9.09"/><circle class="cls-3" cx="133.59" cy="234.39" r="17.07"/><circle class="cls-4" cx="133.59" cy="234.39" r="9.09"/><circle class="cls-4" cx="103.31" cy="221.4" r="4.52"/><circle class="cls-4" cx="173.71" cy="205.53" r="5.01"/><circle class="cls-4" cx="156.98" cy="214.26" r="5.01"/><circle class="cls-4" cx="111.53" cy="209.59" r="1.18"/><circle class="cls-4" cx="108.42" cy="208.37" r="1.18"/><circle class="cls-4" cx="105.31" cy="207.15" r="1.18"/><circle class="cls-4" cx="181.84" cy="221.94" r="5.01"/><circle class="cls-4" cx="165.54" cy="230.35" r="5.01"/><path class="cls-4" d="M-56.23,118.07c1.06.42,5.53-1.69,5.88-2s2.89-5.8,3.06-6.24-1.28-3-4.1-4.09-5.48,0-5.6.31a69.28,69.28,0,0,0-2.17,6.86C-59.12,113.53-57.29,117.66-56.23,118.07Z" transform="translate(114.33 53.37)"/><path class="cls-4" d="M-54.48,121.32c-.42,1.06,1.7,5.53,2,5.88s5.8,2.89,6.25,3.06,3-1.28,4.09-4.1,0-5.48-.32-5.6a66.53,66.53,0,0,0-6.85-2.17C-49.93,118.43-54.06,120.26-54.48,121.32Z" transform="translate(114.33 53.37)"/><path class="cls-4" d="M-57.94,123c-1.06-.41-5.53,1.7-5.88,2s-2.88,5.8-3.06,6.24,1.28,3,4.1,4.09,5.48,0,5.6-.32A65.76,65.76,0,0,0-55,128.19C-55,127.56-56.88,123.43-57.94,123Z" transform="translate(114.33 53.37)"/><path class="cls-4" d="M-59.6,119.74c.42-1.06-1.69-5.53-2-5.88s-5.8-2.88-6.24-3.06-3,1.28-4.09,4.1,0,5.48.31,5.6a64.36,64.36,0,0,0,6.86,2.17C-64.14,122.63-60,120.8-59.6,119.74Z" transform="translate(114.33 53.37)"/><rect class="cls-3" x="-33.6" y="105.31" width="7.41" height="11.1" rx="0.59" transform="translate(152.72 71.93) rotate(21.4)"/><rect class="cls-3" x="38.2" y="133.36" width="7.41" height="11.1" rx="0.59" transform="translate(167.91 47.66) rotate(21.4)"/><rect class="cls-6" x="-29.78" y="116.36" width="65.47" height="33.12" transform="translate(163.04 61.46) rotate(21.4)"/><path class="cls-5" d="M951.77,154.87c1.15-.12,2.93.34,3.71.16s2.12-3.4,7.53-2.74a53.16,53.16,0,0,1,16,4.37c4.45,2.19,5,3.46,6,5.26s.89,3.82,1.21,4l30.87,21.19c.27.18,1.1-.25,3.58-.16a10.58,10.58,0,0,1,5.67,2.16c1.88,1.2,4.16,3.41,7.69,8.07s4.76,7.44,5.06,9.66-.69,3.87-.77,4.54,1.25,2.51,1.38,3.35-4,19.79-5.37,24.86-4.82,16.28-6.21,20.18a71.35,71.35,0,0,1-8.39,17c-4.66,6.8-7.92,8.62-11.41,10.36s-7.16.52-10.3-1.08-4.64-5.26-5.51-10.56S990,259.34,989.25,256s-3.68-7.65-5.45-8.86l-39.94-27.4a17.72,17.72,0,0,0-12.93-2.78c-3.86.79-18.79,4.12-22,4.54s-3.73.65-8.32-2.19-5.36-9-3.58-15.59c.75-2.87,2.59-6,6.56-10.91s13.85-13.55,17.88-16.81S950.61,155,951.77,154.87Z" transform="translate(114.33 53.37)"/><circle class="cls-3" cx="1074.23" cy="259.83" r="12.76"/><circle class="cls-4" cx="1074.23" cy="259.83" r="11.44"/><circle class="cls-3" cx="1072.03" cy="231.32" r="8.67"/><path class="cls-7" d="M968,207.87l-3.34-2.29,2.24-3.28a1.78,1.78,0,0,0-.49-2.64l-2.52-1.73a1.91,1.91,0,0,0-2.54.47L959,201.74l-3.27-2.25a1.79,1.79,0,0,0-2.65.5l-1.73,2.52a1.93,1.93,0,0,0,.48,2.54l3.33,2.28-2.24,3.28a1.78,1.78,0,0,0,.49,2.64L956,215a1.91,1.91,0,0,0,2.54-.47l2.29-3.34,3.27,2.25a1.79,1.79,0,0,0,2.65-.49l1.73-2.52A1.92,1.92,0,0,0,968,207.87Z" transform="translate(114.33 53.37)"/><circle class="cls-4" cx="1072.03" cy="231.32" r="7.78"/><circle class="cls-2" cx="1093.35" cy="245.7" r="3.13"/><circle class="cls-2" cx="1110.59" cy="257.53" r="3.13"/><circle class="cls-4" cx="1124.67" cy="267.19" r="4.82"/><circle class="cls-7" cx="1110.47" cy="237.89" r="6.68"/><circle class="cls-4" cx="1127.12" cy="280.64" r="4.82"/><circle class="cls-4" cx="1140.56" cy="278.09" r="4.82"/><circle class="cls-4" cx="1138.1" cy="264.64" r="4.82"/><circle class="cls-3" cx="1104.85" cy="280.13" r="9.02"/><circle class="cls-4" cx="1104.85" cy="280.13" r="8.06"/><path class="cls-5" d="M710.58,150.37c.59-.09,1.51.11,1.9,0s1-1.78,3.78-1.55a27.07,27.07,0,0,1,8.23,1.88c2.32,1,2.65,1.66,3.18,2.56a15.67,15.67,0,0,1,.7,2l16.2,10.16c.14.09.55-.15,1.82-.16a5.44,5.44,0,0,1,2.93,1,17,17,0,0,1,4.1,4c1.89,2.3,2.58,3.69,2.78,4.82a5.57,5.57,0,0,1-.29,2.33c0,.34.68,1.25.77,1.68s-1.62,10.18-2.21,12.79-2.12,8.41-2.75,10.42a35.88,35.88,0,0,1-3.92,8.87c-2.23,3.56-3.85,4.56-5.6,5.52s-3.64.41-5.27-.34-2.48-2.58-3-5.27-1.59-8.21-2.06-9.9a9.51,9.51,0,0,0-3-4.41l-21-13.13a9,9,0,0,0-6.65-1.15c-2,.49-9.5,2.51-11.13,2.78s-1.89.41-4.29-.94-2.92-4.49-2.15-7.87c.32-1.48,1.19-3.13,3.11-5.71a83,83,0,0,1,8.77-8.95C697.57,160,710,150.46,710.58,150.37Z" transform="translate(114.33 53.37)"/><circle class="cls-3" cx="830.15" cy="229.88" r="6.52"/><circle class="cls-4" cx="830.15" cy="229.88" r="5.84"/><circle class="cls-3" cx="828.42" cy="215.39" r="4.43"/><path class="cls-7" d="M720,177.06l-1.75-1.1,1.07-1.72a.91.91,0,0,0-.3-1.34l-1.33-.83a1,1,0,0,0-1.28.3l-1.1,1.75L713.55,173a.91.91,0,0,0-1.33.31l-.83,1.32a1,1,0,0,0,.29,1.29l1.75,1.09-1.07,1.72a.91.91,0,0,0,.3,1.34l1.32.83a1,1,0,0,0,1.29-.29l1.1-1.76,1.71,1.08a.91.91,0,0,0,1.34-.31l.83-1.32A1,1,0,0,0,720,177.06Z" transform="translate(114.33 53.37)"/><circle class="cls-4" cx="828.42" cy="215.39" r="3.97"/><circle class="cls-2" cx="839.6" cy="222.27" r="1.6"/><circle class="cls-2" cx="848.64" cy="227.94" r="1.6"/><circle class="cls-4" cx="856.03" cy="232.57" r="2.46"/><circle class="cls-7" cx="848.17" cy="217.93" r="3.41"/><circle class="cls-4" cx="857.57" cy="239.38" r="2.46"/><circle class="cls-4" cx="864.36" cy="237.79" r="2.46"/><circle class="cls-4" cx="862.83" cy="230.98" r="2.46"/><circle class="cls-3" cx="846.19" cy="239.59" r="4.6"/><circle class="cls-4" cx="846.19" cy="239.59" r="4.11"/><path class="cls-5" d="M546-19.3c1.49-.83,4.16-1.22,5.11-1.92s.93-5.81,8.64-8,16.81-3.66,24.11-3.24,8.82,1.79,11.16,3.67,3.39,4.67,4,4.78l54,11c.48.1,1.35-1,4.75-2.27s6.23-.77,8.92-.32c3.24.54,7.6,2.23,15,6.52S692.33-1.77,694,1.06s1.29,5.64,1.56,6.59,3.13,2.68,3.8,3.74,6,29.1,7,36.76S709.15,73,709.51,79a104.1,104.1,0,0,1-1.6,27.87c-2.41,11.89-5.78,16.21-9.51,20.59s-9.4,4.8-14.58,4.43-9.29-4.46-13.51-11.14-12.62-20.54-15.59-24.63-9.38-8.25-12.46-8.88l-69.82-14.2a26,26,0,0,0-19.09,3.64c-4.78,3.3-23.09,16.37-27.2,18.76s-4.68,3-12.52,1.82-12.44-9.16-13.79-19.06c-.64-4.32.05-9.64,2.62-18.55s11-26.29,14.58-33S544.47-18.47,546-19.3Z" transform="translate(114.33 53.37)"/><circle class="cls-3" cx="700.89" cy="99.27" r="18.77"/><circle class="cls-4" cx="700.89" cy="99.27" r="16.83"/><circle class="cls-3" cx="681.56" cy="61.93" r="12.76"/><path class="cls-7" d="M598.28,43.19,592.45,42l1.17-5.73a2.64,2.64,0,0,0-2.19-3.3L587,32.09a2.81,2.81,0,0,0-3.16,2.09L582.67,40,577,38.85a2.63,2.63,0,0,0-3.3,2.18l-.9,4.41a2.82,2.82,0,0,0,2.1,3.17l5.83,1.19-1.17,5.72a2.64,2.64,0,0,0,2.19,3.3l4.41.9a2.82,2.82,0,0,0,3.16-2.1l1.19-5.83L596.18,53a2.63,2.63,0,0,0,3.3-2.18l.9-4.41A2.82,2.82,0,0,0,598.28,43.19Z" transform="translate(114.33 53.37)"/><circle class="cls-4" cx="681.56" cy="61.93" r="11.44"/><circle class="cls-2" cx="718.69" cy="69.17" r="4.6"/><circle class="cls-2" cx="748.82" cy="75.3" r="4.6"/><circle class="cls-4" cx="773.43" cy="80.31" r="7.09"/><circle class="cls-7" cx="737.4" cy="48.78" r="9.82"/><circle class="cls-4" cx="784.47" cy="97.12" r="7.09"/><circle class="cls-4" cx="801.2" cy="85.96" r="7.09"/><circle class="cls-4" cx="790.16" cy="69.15" r="7.09"/><circle class="cls-3" cx="754.01" cy="109.21" r="13.27"/><circle class="cls-4" cx="754.01" cy="109.21" r="11.85"/><path class="cls-5" d="M194.57,263.13c.25-1.38,1.37-3.28,1.42-4.24s-3.22-3.59-.65-9.62,6.34-12.57,10.36-17,5.68-4.68,8.09-5.2,4.71.25,5.07,0l34.78-28.64c.31-.26.08-1.36,1-4.19s2.71-4.36,4.38-5.84c2-1.77,5.34-3.68,11.9-6.2s10.19-3,12.86-2.63,4.25,2.08,5,2.4,3.32-.61,4.34-.48,21.56,11.21,26.95,14.49,17.22,11,21.26,13.91a85,85,0,0,1,16.89,15.38c6.31,7.65,7.33,12,8.18,16.65s-1.79,8.45-4.69,11.54-7.62,3.61-14,2.86-19.56-2.57-23.69-2.79-10.07,1.71-12.06,3.35l-45,37.05a21.34,21.34,0,0,0-7.53,14c-.36,4.73-1.49,23.1-2.08,26.95s-.49,4.53-5.3,8.89-12.23,3.19-19.22-1.05c-3.07-1.82-6.1-5-10.44-11.22s-11-20.53-13.47-26.28S194.33,264.51,194.57,263.13Z" transform="translate(114.33 53.37)"/><circle class="cls-3" cx="371.26" cy="324.29" r="15.36"/><circle class="cls-4" cx="371.26" cy="324.29" r="13.77"/><circle class="cls-3" cx="337.56" cy="317.34" r="10.44"/><path class="cls-7" d="M261.25,262.08l-3.76,3.09-3-3.69a2.16,2.16,0,0,0-3.23-.31l-2.84,2.34a2.31,2.31,0,0,0-.3,3.09l3.1,3.76-3.69,3a2.15,2.15,0,0,0-.31,3.22l2.34,2.84a2.29,2.29,0,0,0,3.09.3l3.76-3.09,3,3.69a2.15,2.15,0,0,0,3.22.31l2.84-2.34a2.29,2.29,0,0,0,.3-3.09l-3.09-3.76,3.69-3a2.15,2.15,0,0,0,.31-3.22l-2.34-2.84A2.29,2.29,0,0,0,261.25,262.08Z" transform="translate(114.33 53.37)"/><circle class="cls-4" cx="337.56" cy="317.34" r="9.36"/><circle class="cls-2" cx="361.3" cy="297.47" r="3.76"/><circle class="cls-2" cx="380.71" cy="281.48" r="3.76"/><circle class="cls-4" cx="396.58" cy="268.42" r="5.8"/><circle class="cls-7" cx="357.97" cy="275.08" r="8.04"/><circle class="cls-4" cx="412.95" cy="270.06" r="5.8"/><circle class="cls-4" cx="414.48" cy="253.68" r="5.8"/><circle class="cls-4" cx="398.11" cy="252.04" r="5.8"/><circle class="cls-3" cx="404.94" cy="295.66" r="10.85"/><circle class="cls-4" cx="404.94" cy="295.66" r="9.69"/><path class="cls-5" d="M-4.5,48.15c.16-.95.94-2.27,1-2.93S-5.75,42.74-4,38.56A44.41,44.41,0,0,1,3.19,26.8c2.79-3.06,3.94-3.24,5.6-3.6s3.26.17,3.51,0L36.36,3.35c.22-.17.06-.93.7-2.9a8.81,8.81,0,0,1,3-4c1.39-1.23,3.69-2.55,8.23-4.29s7.05-2.1,8.89-1.82A8.77,8.77,0,0,1,60.68-8c.52.22,2.3-.42,3-.34S78.6-.61,82.33,1.66,94.24,9.28,97,11.29a59,59,0,0,1,11.69,10.64c4.36,5.29,5.07,8.32,5.66,11.52s-1.24,5.84-3.25,8-5.27,2.49-9.72,2S87.89,41.64,85,41.48s-7,1.19-8.34,2.32L45.55,69.44a14.72,14.72,0,0,0-5.2,9.69c-.26,3.28-1,16-1.45,18.65s-.34,3.14-3.66,6.16-8.46,2.2-13.3-.73c-2.13-1.26-4.22-3.46-7.22-7.77S7.07,81.24,5.39,77.26-4.67,49.11-4.5,48.15Z" transform="translate(114.33 53.37)"/><circle class="cls-3" cx="152.97" cy="106.91" r="10.63"/><circle class="cls-4" cx="152.97" cy="106.91" r="9.53"/><circle class="cls-3" cx="129.66" cy="102.1" r="7.22"/><path class="cls-7" d="M41.63,47.42,39,49.57,36.92,47a1.49,1.49,0,0,0-2.23-.21l-2,1.62a1.59,1.59,0,0,0-.21,2.14l2.14,2.6-2.55,2.1a1.49,1.49,0,0,0-.21,2.23l1.61,2a1.59,1.59,0,0,0,2.14.21l2.61-2.14,2.1,2.55a1.49,1.49,0,0,0,2.23.22l2-1.62a1.59,1.59,0,0,0,.21-2.14l-2.14-2.6,2.55-2.1a1.49,1.49,0,0,0,.22-2.23l-1.62-2A1.59,1.59,0,0,0,41.63,47.42Z" transform="translate(114.33 53.37)"/><circle class="cls-4" cx="129.66" cy="102.1" r="6.48"/><circle class="cls-2" cx="146.08" cy="88.36" r="2.6"/><circle class="cls-2" cx="159.51" cy="77.29" r="2.6"/><circle class="cls-4" cx="170.49" cy="68.26" r="4.01"/><circle class="cls-7" cx="143.78" cy="72.86" r="5.56"/><circle class="cls-4" cx="181.82" cy="69.39" r="4.01"/><circle class="cls-4" cx="182.88" cy="58.06" r="4.01"/><circle class="cls-4" cx="171.55" cy="56.92" r="4.01"/><circle class="cls-3" cx="176.28" cy="87.1" r="7.51"/><circle class="cls-4" cx="176.28" cy="87.1" r="6.71"/><path class="cls-3" d="M874.57,260.57l48.37,57.09-28.6.46-13.56-16c-2.46-2.91-15.49-25.44-14.18-29S874.57,260.57,874.57,260.57Z" transform="translate(114.33 53.37)"/><path class="cls-3" d="M885.64,251.2l48,56.69,5.48-27.75-13.57-16c-2.46-2.9-22.55-19.45-26.26-18.74S885.64,251.2,885.64,251.2Z" transform="translate(114.33 53.37)"/><path class="cls-8" d="M893,316.47s-.69,21.62,6.94,31.74,20.13,9.91,27.29,11.52,14.76,7.88,22.47,3.69c0,0-26.18-12.54-30.64-17.8S893,316.47,893,316.47Z" transform="translate(114.33 53.37)"/><path class="cls-8" d="M928.45,267.51s14.78-.39,26.08,7.7,10.9,18.54,14.46,33.59,10.9,29.24,5.4,35c0,0-7.43-30.87-11.22-35.35Z" transform="translate(114.33 53.37)"/><polygon class="cls-8" points="993.96 319.91 1005.02 310.53 1046.12 359.03 1045.26 369.31 1035.06 368.41 993.96 319.91"/><rect class="cls-9" x="895.66" y="266.82" width="9.26" height="25.92" rx="0.63" transform="translate(146.89 701.72) rotate(-40.28)"/><path class="cls-10" d="M894.34,318.12l23.95,28.25c2.72,3.22,33.65,20.3,36.55,17.84l19.62-16.63c1.88-1.6-8.37-35.65-11.29-39.11l-24.28-28.64-9.44,34.29Z" transform="translate(114.33 53.37)"/><circle class="cls-3" cx="1052.76" cy="378.08" r="7.61"/><circle class="cls-4" cx="1052.76" cy="378.08" r="5.25"/><circle class="cls-3" cx="1063.83" cy="391.15" r="5.25"/><circle class="cls-4" cx="1063.83" cy="391.15" r="3.62"/><path class="cls-3" d="M1127-28.51l26.89,123.19L1111,72.76l-7.54-34.55c-1.37-6.27-3-50.1,1.8-54.33S1127-28.51,1127-28.51Z" transform="translate(114.33 53.37)"/><path class="cls-3" d="M1150.87-33.72l26.71,122.34,30.08-37-7.55-34.55c-1.36-6.27-18.19-46.77-24.28-48.64S1150.87-33.72,1150.87-33.72Z" transform="translate(114.33 53.37)"/><path class="cls-8" d="M1110.17,69.2s-18.11,31.64-14.75,52.73,22.13,30.65,31.52,38.72,15.74,23.38,30.53,23.24c0,0-29.06-39.35-31.53-50.7S1110.17,69.2,1110.17,69.2Z" transform="translate(114.33 53.37)"/><path class="cls-8" d="M1201.7,24.38s22.3,11.1,32.73,32.07,1.57,36.21-5,61.42-6.87,52.15-19.63,56.4c0,0,13.33-51.83,11.22-61.48Z" transform="translate(114.33 53.37)"/><polygon class="cls-8" points="1244.13 37.73 1268.01 32.52 1290.86 137.19 1281.45 151.8 1266.98 142.4 1244.13 37.73"/><rect class="cls-9" x="1142.28" y="-1.45" width="15.6" height="43.68" rx="0.63" transform="translate(136.44 299.12) rotate(-12.31)"/><path class="cls-10" d="M1111,72.76l13.31,61c1.51,7,34,56.8,40.31,55.43l42.34-9.24c4.07-.89,15.72-59.68,14.09-67.13L1207.51,51l-41.15,43.58Z" transform="translate(114.33 53.37)"/><circle class="cls-3" cx="1285.68" cy="170.79" r="12.83"/><circle class="cls-4" cx="1285.68" cy="170.79" r="8.84"/><circle class="cls-3" cx="1291.84" cy="198.98" r="8.84"/><circle class="cls-4" cx="1291.84" cy="198.98" r="6.09"/><path class="cls-3" d="M599.91,145l21.86,103.74-36-18.69-6.13-29.09c-1.11-5.28-2.18-42.15,1.84-45.67S599.91,145,599.91,145Z" transform="translate(114.33 53.37)"/><path class="cls-3" d="M620,140.72l21.71,103,25.52-30.9-6.14-29.1c-1.11-5.27-15-39.43-20.12-41S620,140.72,620,140.72Z" transform="translate(114.33 53.37)"/><path class="cls-8" d="M585.18,227s-15.42,26.49-12.72,44.24,18.42,25.91,26.26,32.75,13.09,19.75,25.53,19.73c0,0-24.19-33.27-26.21-42.82S585.18,227,585.18,227Z" transform="translate(114.33 53.37)"/><path class="cls-8" d="M662.41,189.87s18.67,9.47,27.32,27.16,1.1,30.46-4.59,51.62S679,312.44,668.29,316c0,0,11.52-43.5,9.81-51.63Z" transform="translate(114.33 53.37)"/><polygon class="cls-8" points="716.52 209.16 736.63 204.93 755.21 293.06 747.21 305.29 735.1 297.3 716.52 209.16"/><rect class="cls-9" x="612.47" y="167.84" width="13.12" height="36.73" rx="0.63" transform="translate(89.23 185.04) rotate(-11.9)"/><path class="cls-10" d="M585.81,230l10.82,51.34c1.23,5.85,28.28,48,33.56,46.85l35.65-7.51c3.43-.73,13.58-50.08,12.26-56.36l-11-52-34.85,36.39Z" transform="translate(114.33 53.37)"/><circle class="cls-3" cx="750.65" cy="321.28" r="10.79"/><circle class="cls-4" cx="750.65" cy="321.28" r="7.43"/><circle class="cls-3" cx="755.66" cy="345.03" r="7.43"/><circle class="cls-4" cx="755.66" cy="345.03" r="5.12"/><path class="cls-3" d="M357.43-20.13,337,54.83l-17.21-24.2,5.72-21c1-3.82,12.65-28.22,16.45-29.17S357.43-20.13,357.43-20.13Z" transform="translate(114.33 53.37)"/><path class="cls-3" d="M372-16.17,351.72,58.27l27-11.63,5.71-21c1-3.81,3.38-30.73.59-33.48S372-16.17,372-16.17Z" transform="translate(114.33 53.37)"/><path class="cls-8" d="M320.42,28.47s-18.91,12.12-23.08,24.6,3.36,23.05,6.2,30.13,1.94,17.26,10.06,21.4c0,0-4.67-29.78-2.79-36.69S320.42,28.47,320.42,28.47Z" transform="translate(114.33 53.37)"/><path class="cls-8" d="M383.19,30.05s9,12.41,8.75,26.84S382.49,77.12,371.71,89s-18.61,26.52-26.79,25.22c0,0,22-24.52,23.64-30.4Z" transform="translate(114.33 53.37)"/><polygon class="cls-8" points="469.63 41.08 484.16 45.03 466.84 108.72 457.54 114.02 452.31 104.77 469.63 41.08"/><rect class="cls-9" x="351.32" y="-0.29" width="9.61" height="26.91" rx="0.63" transform="translate(130.27 -39.63) rotate(15.22)"/><path class="cls-10" d="M319.83,30.63l-10.09,37.1c-1.15,4.23,2.42,40.73,6.24,41.77l25.76,7c2.48.67,25.58-28.13,26.82-32.67l10.23-37.61L343.9,58.32Z" transform="translate(114.33 53.37)"/><circle class="cls-3" cx="454.44" cy="125.6" r="7.9"/><circle class="cls-4" cx="454.44" cy="125.6" r="5.45"/><circle class="cls-3" cx="449.78" cy="142.76" r="5.45"/><circle class="cls-4" cx="449.78" cy="142.76" r="3.75"/><path class="cls-3" d="M172.1,23.77l-46.82,53L121,50.06,134.1,35.2c2.39-2.69,21.69-17.93,25.18-17.18S172.1,23.77,172.1,23.77Z" transform="translate(114.33 53.37)"/><path class="cls-3" d="M182.36,32.85l-46.49,52.6,26.68,1.36L175.69,72c2.38-2.69,15.13-23.72,13.95-27.09S182.36,32.85,182.36,32.85Z" transform="translate(114.33 53.37)"/><path class="cls-8" d="M122.33,48.53S102,50.81,93.59,59.32,87.05,79.48,86.52,86.4s-5.37,14.86-.4,21.51c0,0,8.17-26.18,12.48-31.06S122.33,48.53,122.33,48.53Z" transform="translate(114.33 53.37)"/><path class="cls-8" d="M172.92,75.08s2.36,13.77-3.67,25.43-15.86,12.7-29.44,18.07-25.87,14.16-32,9.8c0,0,27.86-11.13,31.53-15.28Z" transform="translate(114.33 53.37)"/><polygon class="cls-8" points="281.53 82.67 291.8 91.75 252.02 136.75 242.3 137.34 241.75 127.68 281.53 82.67"/><rect class="cls-9" x="153.25" y="38.17" width="8.75" height="24.49" rx="0.63" transform="translate(187.24 -38.38) rotate(41.47)"/><path class="cls-10" d="M121,50.06,97.8,76.27c-2.64,3-14.41,34.21-11.72,36.6L104.29,129c1.75,1.54,32.2-12.66,35-15.86l23.49-26.58-33.34-4.18Z" transform="translate(114.33 53.37)"/><circle class="cls-3" cx="235.11" cy="145.54" r="7.19"/><circle class="cls-4" cx="235.11" cy="145.54" r="4.96"/><circle class="cls-3" cx="224.39" cy="157.67" r="4.96"/><circle class="cls-4" cx="224.39" cy="157.67" r="3.42"/></g><g id="Layer_3" data-name="Layer 3"><path class="cls-2" d="M207.33,137.28,137.41,334s-66.51-14.64-51.6-56.61l44.6-125.51C137,133.49,157.37,119.53,207.33,137.28Z" transform="translate(114.33 53.37)"/><circle class="cls-3" cx="274.71" cy="229.31" r="15.86"/><circle class="cls-4" cx="260.2" cy="270.14" r="8.7"/><circle class="cls-4" cx="241.38" cy="279.13" r="8.7"/><circle class="cls-4" cx="250.16" cy="298.39" r="8.7"/><circle class="cls-4" cx="270.2" cy="289.37" r="8.7"/><rect class="cls-3" x="184.18" y="151.61" width="11.08" height="2.28" transform="translate(176.43 -1.34) rotate(19.56)"/></g><g id="Layer_6" data-name="Layer 6"><polygon class="cls-11" points="1313.5 135.74 940.75 135.74 999.03 74.62 1313.5 74.62 1313.5 135.74"/></g><g id="Layer_4" data-name="Layer 4"><path class="cls-12" d="M937.16,64.74C935.35,73,926.52,76.6,916.64,76.6c-8.55,0-17.1-3.9-17.1-11.33a8.19,8.19,0,0,1,.28-2.18L907.52,28h14.15l-7.79,35.34a2.2,2.2,0,0,0-.09.76c0,2,1.9,2.85,4.18,2.85,3,0,5.13-1.35,5.7-3.75L931.36,28h13.87Z" transform="translate(114.33 53.37)"/><path class="cls-12" d="M964.9,59.19H946.75l1.81-8H966.7Z" transform="translate(114.33 53.37)"/><path class="cls-12" d="M1010,39.83a15.27,15.27,0,0,0-8.17-2.48c-7.31,0-12,7-13.68,14.78a24.94,24.94,0,0,0-.67,5.63c0,5.41,2.19,9.08,6.28,9.08a8,8,0,0,0,1.8-.22l2.19-10H993.4l2-8.86h17.48L1007.27,73c-3.42,2.17-8.08,3.67-14.92,3.67-12,0-18.81-7.2-18.81-18.68a36.37,36.37,0,0,1,.86-7.51c3.42-15.68,14.91-23.34,26.31-23.34,6.37,0,11.4,2,13.68,3.61Z" transform="translate(114.33 53.37)"/><path class="cls-12" d="M1039.75,75.85V65.42h-9.21l-4.66,10.43h-13L1037.09,28h13.3l3.14,47.88Zm.38-33.55c-.47,1.5-1.23,3.38-1.8,4.81l-3.7,9.38h4.75l.57-9.38c.09-1.43.18-3.31.38-4.81Z" transform="translate(114.33 53.37)"/><path class="cls-12" d="M1111.86,75.85h-13.21l2.85-18.54c.38-2.7,1.24-5.93,2.09-9.38h-.19c-1.42,3.38-2.75,6.61-4.27,9.46l-9.6,18.46h-8.17l-1.71-18.46a76.93,76.93,0,0,1-.28-9.38h-.19a85.69,85.69,0,0,1-2,9.38L1072,75.85h-13.11L1073.19,28h14.16l2,19.36a83.82,83.82,0,0,1,.38,9.76h.1c1.33-3.08,3.13-6.83,4.65-9.76L1104.73,28h13.87Z" transform="translate(114.33 53.37)"/><path class="cls-12" d="M1153.66,37.35h-11.31l-2.18,9.76h9.5l-2.09,9.45h-9.5l-2.19,9.91h12.83l-2.09,9.38h-26.7L1130.48,28h25.27Z" transform="translate(114.33 53.37)"/></g></svg>